<svg xmlns="http://www.w3.org/2000/svg" viewBox="0 0 512 512" fill="currentColor">
<path d="M240 32h32c9 0 16 7 16 16v146c0 24 14 45 36 55l14 6c8 4 12 14 8 22s-14 12-22 8l-14-6c-33-15-56-46-60-82-4 36-27 67-60 82l-14 6c-8 4-18 0-22-8s0-18 8-22l14-6c22-10 36-31 36-55V48c0-9 7-16 16-16z"/>
<path d="M170 168c14-6 30 3 33 18 3 18 5 43 5 78 0 74-14 130-34 165-11 19-31 31-53 31h-6c-30 0-54-25-53-55 2-70 15-129 38-172 16-30 42-53 70-65zm172 0c28 12 54 35 70 65 23 43 36 102 38 172 1 30-23 55-53 55h-6c-22 0-42-12-53-31-20-35-34-91-34-165 0-35 2-60 5-78 3-15 19-24 33-18z"/>
</svg>
